# xmcd
#
# Track frame offsets: 
#        150
#        26089
#        38999
#        56811
#        75971
#        100623
#        115778
#        135812
#        161264
#        187375
#        211657
#        230890
#        248834
#        276076
#        310754
#
# Disc length: 4484 seconds
#
# Revision: 1
# Processed by: cddbd v1.5.1PL0 Copyright (c) Steve Scherf et al.
# Submitted via: ExactAudioCopy v0.95a3
#
DISCID=c111820f
DTITLE=Allison Moorer - Show
DYEAR=2003
DGENRE=Country
TTITLE0=Day You Said Goodbye
TTITLE1=Don't Cry No Tears
TTITLE2=Alabama Song
TTITLE3=A Soft Place To Fall
TTITLE4=Yessirree
TTITLE5=I'll Break Before I Bend
TTITLE6=Let Go
TTITLE7=Steal The Sun
TTITLE8=Bring Me All Your Lovin'
TTITLE9=Is Heaven Good Enough For You
TTITLE10=Going Down
TTITLE11=Send Down An Angel
TTITLE12=Dying Breed
TTITLE13=No Next Time
TTITLE14=Bully Jones
EXTD=YEAR: 2003
EXTT0=
EXTT1=
EXTT2=
EXTT3=
EXTT4=
EXTT5=
EXTT6=
EXTT7=
EXTT8=
EXTT9=
EXTT10=
EXTT11=
EXTT12=
EXTT13=
EXTT14=
PLAYORDER=
